REM GENRE Metal
REM DATE 2005
REM DISCID 3804DE06
REM COMMENT "ExactAudioCopy v0.95b4"
PERFORMER "Linkin Park"
TITLE "LP Underground 5.0 (EP)"
FILE "01 - Somewhere I Belong (Live).wav" WAVE
  TRACK 01 AUDIO
    TITLE "Somewhere I Belong "
    PERFORMER "Linkin Park"
    INDEX 01 00:00:00
FILE "02 - Breaking the Habit (Live).wav" WAVE
  TRACK 02 AUDIO
    TITLE "Breaking The Habit "
    PERFORMER "Linkin Park"
    INDEX 01 00:00:00
FILE "03 - Public Service Announcement - Intro (Live).wav" WAVE
  TRACK 03 AUDIO
    TITLE "Public Service Announcement - Intro "
    PERFORMER "Linkin Park"
    INDEX 01 00:00:00
FILE "04 - Dirt Off Your Shoulder , Lying from You (Live).wav" WAVE
  TRACK 04 AUDIO
    TITLE "Dirt Off Your Shoulder / Lying From You "
    PERFORMER "Linkin Park"
    INDEX 01 00:00:00
FILE "05 - Big Pimpin' , Papercut (Live).wav" WAVE
  TRACK 05 AUDIO
    TITLE "Big Pimpin' / Papercut "
    PERFORMER "Linkin Park"
    INDEX 01 00:00:00
FILE "06 - Jigga What , Faint (Live).wav" WAVE
  TRACK 06 AUDIO
    TITLE "Jigga What / Faint "
    PERFORMER "Linkin Park"
    INDEX 01 00:00:00
